<svg xmlns="http://www.w3.org/2000/svg" version="1.1" xmlns:xlink="http://www.w3.org/1999/xlink" xmlns:svgjs="http://svgjs.dev/svgjs" viewBox="0 0 800 800"><defs><linearGradient x1="50%" y1="0%" x2="50%" y2="100%" id="ffflurry-grad" gradientTransform="rotate(270)"><stop stop-color="hsl(0, 0%, 100%)" stop-opacity="1" offset="0%"></stop><stop stop-color="hsl(0, 0%, 0%)" stop-opacity="1" offset="45%"></stop><stop stop-color="hsl(0, 0%, 0%)" stop-opacity="1" offset="100%"></stop></linearGradient></defs><rect width="100%" height="100%" fill="hsl(0, 0%, 100%)"></rect><g fill="url(#ffflurry-grad)"><rect width="102" height="2" x="737" y="43" rx="1" transform="rotate(30, 788, 44)"></rect><rect width="117" height="2" x="215.5" y="73" rx="1" transform="rotate(30, 274, 74)"></rect><rect width="84" height="2" x="524" y="646" rx="1" transform="rotate(30, 566, 647)"></rect><rect width="174" height="2" x="550" y="335" rx="1" transform="rotate(30, 637, 336)"></rect><rect width="181" height="2" x="682.5" y="620" rx="1" transform="rotate(30, 773, 621)"></rect><rect width="109" height="2" x="621.5" y="638" rx="1" transform="rotate(30, 676, 639)"></rect><rect width="264" height="2" x="315" y="477" rx="1" transform="rotate(30, 447, 478)"></rect><rect width="138" height="2" x="272" y="639" rx="1" transform="rotate(30, 341, 640)"></rect><rect width="443" height="2" x="-38.5" y="175" rx="1" transform="rotate(30, 183, 176)"></rect><rect width="160" height="2" x="649" y="40" rx="1" transform="rotate(30, 729, 41)"></rect><rect width="30" height="2" x="47" y="268" rx="1" transform="rotate(30, 62, 269)"></rect><rect width="317" height="2" x="313.5" y="341" rx="1" transform="rotate(30, 472, 342)"></rect><rect width="199" height="2" x="113.5" y="600" rx="1" transform="rotate(30, 213, 601)"></rect><rect width="265" height="2" x="180.5" y="526" rx="1" transform="rotate(30, 313, 527)"></rect><rect width="122" height="2" x="201" y="554" rx="1" transform="rotate(30, 262, 555)"></rect><rect width="222" height="2" x="-35" y="753" rx="1" transform="rotate(30, 76, 754)"></rect><rect width="415" height="2" x="-160.5" y="658" rx="1" transform="rotate(30, 47, 659)"></rect><rect width="253" height="2" x="448.5" y="70" rx="1" transform="rotate(30, 575, 71)"></rect><rect width="281" height="2" x="381.5" y="540" rx="1" transform="rotate(30, 522, 541)"></rect><rect width="81" height="2" x="222.5" y="256" rx="1" transform="rotate(30, 263, 257)"></rect><rect width="43" height="2" x="664.5" y="473" rx="1" transform="rotate(30, 686, 474)"></rect><rect width="346" height="2" x="491" y="76" rx="1" transform="rotate(30, 664, 77)"></rect><rect width="327" height="2" x="-131.5" y="416" rx="1" transform="rotate(30, 32, 417)"></rect><rect width="173" height="2" x="676.5" y="440" rx="1" transform="rotate(30, 763, 441)"></rect><rect width="231" height="2" x="515.5" y="767" rx="1" transform="rotate(30, 631, 768)"></rect><rect width="67" height="2" x="562.5" y="719" rx="1" transform="rotate(30, 596, 720)"></rect><rect width="377" height="2" x="148.5" y="149" rx="1" transform="rotate(30, 337, 150)"></rect><rect width="127" height="2" x="124.5" y="429" rx="1" transform="rotate(30, 188, 430)"></rect><rect width="346" height="2" x="228" y="217" rx="1" transform="rotate(30, 401, 218)"></rect><rect width="343" height="2" x="297.5" y="74" rx="1" transform="rotate(30, 469, 75)"></rect><rect width="154" height="2" x="59" y="496" rx="1" transform="rotate(30, 136, 497)"></rect><rect width="153" height="2" x="680.5" y="347" rx="1" transform="rotate(30, 757, 348)"></rect><rect width="410" height="2" x="393" y="456" rx="1" transform="rotate(30, 598, 457)"></rect><rect width="223" height="2" x="572.5" y="540" rx="1" transform="rotate(30, 684, 541)"></rect><rect width="116" height="2" x="83" y="576" rx="1" transform="rotate(30, 141, 577)"></rect><rect width="342" height="2" x="186" y="463" rx="1" transform="rotate(30, 357, 464)"></rect><rect width="119" height="2" x="7.5" y="160" rx="1" transform="rotate(30, 67, 161)"></rect><rect width="58" height="2" x="68" y="316" rx="1" transform="rotate(30, 97, 317)"></rect><rect width="129" height="2" x="302.5" y="567" rx="1" transform="rotate(30, 367, 568)"></rect><rect width="425" height="2" x="274.5" y="743" rx="1" transform="rotate(30, 487, 744)"></rect><rect width="36" height="2" x="719" y="762" rx="1" transform="rotate(30, 737, 763)"></rect><rect width="166" height="2" x="526" y="564" rx="1" transform="rotate(30, 609, 565)"></rect><rect width="238" height="2" x="626" y="693" rx="1" transform="rotate(30, 745, 694)"></rect><rect width="258" height="2" x="-49" y="539" rx="1" transform="rotate(30, 80, 540)"></rect><rect width="111" height="2" x="336.5" y="317" rx="1" transform="rotate(30, 392, 318)"></rect><rect width="104" height="2" x="399" y="636" rx="1" transform="rotate(30, 451, 637)"></rect><rect width="105" height="2" x="45.5" y="438" rx="1" transform="rotate(30, 98, 439)"></rect><rect width="142" height="2" x="-50" y="216" rx="1" transform="rotate(30, 21, 217)"></rect><rect width="245" height="2" x="306.5" y="540" rx="1" transform="rotate(30, 429, 541)"></rect><rect width="204" height="2" x="318" y="409" rx="1" transform="rotate(30, 420, 410)"></rect><rect width="206" height="2" x="642" y="122" rx="1" transform="rotate(30, 745, 123)"></rect><rect width="387" height="2" x="168.5" y="746" rx="1" transform="rotate(30, 362, 747)"></rect><rect width="231" height="2" x="621.5" y="578" rx="1" transform="rotate(30, 737, 579)"></rect><rect width="156" height="2" x="431" y="181" rx="1" transform="rotate(30, 509, 182)"></rect><rect width="246" height="2" x="63" y="47" rx="1" transform="rotate(30, 186, 48)"></rect><rect width="189" height="2" x="170.5" y="672" rx="1" transform="rotate(30, 265, 673)"></rect><rect width="108" height="2" x="-27" y="555" rx="1" transform="rotate(30, 27, 556)"></rect><rect width="49" height="2" x="648.5" y="401" rx="1" transform="rotate(30, 673, 402)"></rect><rect width="43" height="2" x="186.5" y="501" rx="1" transform="rotate(30, 208, 502)"></rect><rect width="284" height="2" x="87" y="353" rx="1" transform="rotate(30, 229, 354)"></rect><rect width="269" height="2" x="616.5" y="210" rx="1" transform="rotate(30, 751, 211)"></rect><rect width="122" height="2" x="704" y="518" rx="1" transform="rotate(30, 765, 519)"></rect><rect width="298" height="2" x="131" y="441" rx="1" transform="rotate(30, 280, 442)"></rect><rect width="319" height="2" x="420.5" y="253" rx="1" transform="rotate(30, 580, 254)"></rect><rect width="31" height="2" x="654.5" y="14" rx="1" transform="rotate(30, 670, 15)"></rect><rect width="325" height="2" x="355.5" y="426" rx="1" transform="rotate(30, 518, 427)"></rect><rect width="183" height="2" x="402.5" y="272" rx="1" transform="rotate(30, 494, 273)"></rect><rect width="89" height="2" x="278.5" y="354" rx="1" transform="rotate(30, 323, 355)"></rect><rect width="253" height="2" x="507.5" y="184" rx="1" transform="rotate(30, 634, 185)"></rect><rect width="67" height="2" x="728.5" y="35" rx="1" transform="rotate(30, 762, 36)"></rect><rect width="139" height="2" x="303.5" y="40" rx="1" transform="rotate(30, 373, 41)"></rect><rect width="68" height="2" x="184" y="752" rx="1" transform="rotate(30, 218, 753)"></rect><rect width="321" height="2" x="-93.5" y="57" rx="1" transform="rotate(30, 67, 58)"></rect><rect width="441" height="2" x="-72.5" y="664" rx="1" transform="rotate(30, 148, 665)"></rect><rect width="93" height="2" x="513.5" y="342" rx="1" transform="rotate(30, 560, 343)"></rect><rect width="117" height="2" x="641.5" y="277" rx="1" transform="rotate(30, 700, 278)"></rect><rect width="182" height="2" x="59" y="351" rx="1" transform="rotate(30, 150, 352)"></rect></g></svg>