<svg id="visual" viewBox="0 0 540 990" width="540" height="990" xmlns="http://www.w3.org/2000/svg" xmlns:xlink="http://www.w3.org/1999/xlink" version="1.1"><rect x="0" y="0" width="540" height="990" fill="#001220"></rect><defs><linearGradient id="grad1_0" x1="0%" y1="100%" x2="100%" y2="0%"><stop offset="30%" stop-color="#006eff" stop-opacity="1"></stop><stop offset="70%" stop-color="#006eff" stop-opacity="1"></stop></linearGradient></defs><defs><linearGradient id="grad1_1" x1="0%" y1="100%" x2="100%" y2="0%"><stop offset="30%" stop-color="#006eff" stop-opacity="1"></stop><stop offset="70%" stop-color="#00438a" stop-opacity="1"></stop></linearGradient></defs><defs><linearGradient id="grad1_2" x1="0%" y1="100%" x2="100%" y2="0%"><stop offset="30%" stop-color="#001220" stop-opacity="1"></stop><stop offset="70%" stop-color="#00438a" stop-opacity="1"></stop></linearGradient></defs><defs><linearGradient id="grad2_0" x1="0%" y1="100%" x2="100%" y2="0%"><stop offset="30%" stop-color="#006eff" stop-opacity="1"></stop><stop offset="70%" stop-color="#006eff" stop-opacity="1"></stop></linearGradient></defs><defs><linearGradient id="grad2_1" x1="0%" y1="100%" x2="100%" y2="0%"><stop offset="30%" stop-color="#00438a" stop-opacity="1"></stop><stop offset="70%" stop-color="#006eff" stop-opacity="1"></stop></linearGradient></defs><defs><linearGradient id="grad2_2" x1="0%" y1="100%" x2="100%" y2="0%"><stop offset="30%" stop-color="#00438a" stop-opacity="1"></stop><stop offset="70%" stop-color="#001220" stop-opacity="1"></stop></linearGradient></defs><g transform="translate(540, 990)"><path d="M-405 0C-402.9 -36.9 -400.9 -73.9 -378.6 -101.5C-356.4 -129 -314 -147.2 -286.7 -165.5C-259.3 -183.8 -247.1 -202.1 -239 -239C-230.9 -275.9 -227.1 -331.4 -202.5 -350.7C-177.9 -370.1 -132.7 -353.4 -95.5 -356.4C-58.3 -359.5 -29.2 -382.2 0 -405L0 0Z" fill="#002b52"></path><path d="M-270 0C-268.6 -24.6 -267.3 -49.3 -252.4 -67.6C-237.6 -86 -209.3 -98.2 -191.1 -110.3C-172.9 -122.5 -164.7 -134.7 -159.3 -159.3C-154 -183.9 -151.4 -220.9 -135 -233.8C-118.6 -246.7 -88.5 -235.6 -63.7 -237.6C-38.9 -239.6 -19.4 -254.8 0 -270L0 0Z" fill="#005ac5"></path><path d="M-135 0C-134.3 -12.3 -133.6 -24.6 -126.2 -33.8C-118.8 -43 -104.7 -49.1 -95.6 -55.2C-86.4 -61.3 -82.4 -67.4 -79.7 -79.7C-77 -92 -75.7 -110.5 -67.5 -116.9C-59.3 -123.4 -44.2 -117.8 -31.8 -118.8C-19.4 -119.8 -9.7 -127.4 0 -135L0 0Z" fill="#006eff"></path></g><g transform="translate(0, 0)"><path d="M405 0C400.9 33.7 396.8 67.3 391.2 104.8C385.6 142.3 378.5 183.6 344.7 199C310.9 214.4 250.5 203.8 219.2 219.2C187.9 234.6 185.8 275.8 166.5 288.4C147.2 300.9 110.8 284.8 80.2 299.4C49.6 314.1 24.8 359.5 0 405L0 0Z" fill="#002b52"></path><path d="M270 0C267.3 22.4 264.5 44.9 260.8 69.9C257.1 94.9 252.3 122.4 229.8 132.7C207.3 142.9 167 135.9 146.1 146.1C125.3 156.4 123.8 183.9 111 192.3C98.2 200.6 73.9 189.9 53.5 199.6C33.1 209.4 16.5 239.7 0 270L0 0Z" fill="#005ac5"></path><path d="M135 0C133.6 11.2 132.3 22.4 130.4 34.9C128.5 47.4 126.2 61.2 114.9 66.3C103.6 71.5 83.5 67.9 73.1 73.1C62.6 78.2 61.9 91.9 55.5 96.1C49.1 100.3 36.9 94.9 26.7 99.8C16.5 104.7 8.3 119.8 0 135L0 0Z" fill="#006eff"></path></g></svg>