<svg xmlns="http://www.w3.org/2000/svg" version="1.1" xmlns:xlink="http://www.w3.org/1999/xlink" xmlns:svgjs="http://svgjs.dev/svgjs" width="460" height="1440" preserveAspectRatio="none" viewBox="0 0 460 1440"><g mask="url(&quot;#SvgjsMask1020&quot;)" fill="none"><rect width="460" height="1440" x="0" y="0" fill="rgba(107, 107, 107, 1)"></rect><path d="M121.39,1494.906C155.173,1493.129,188.441,1481.664,206.257,1452.905C225.018,1422.621,227.872,1383.546,209.156,1353.235C191.221,1324.189,155.524,1314.983,121.39,1315.459C88.248,1315.921,56.616,1328.365,37.759,1355.623C15.676,1387.544,-0.468,1429.449,19.513,1462.726C39.162,1495.45,83.273,1496.911,121.39,1494.906" fill="rgba(39, 38, 38, 0.4)" class="triangle-float2"></path><path d="M135.211,1016.301C159.951,1015.411,176.121,993.508,188.592,972.122C201.193,950.513,213.909,924.748,201.141,903.237C188.52,881.975,159.914,881.115,135.211,882.191C112.896,883.163,90.617,889.794,78.534,908.58C65.441,928.937,63.461,954.8,74.731,976.22C86.801,999.16,109.307,1017.233,135.211,1016.301" fill="rgba(39, 38, 38, 0.4)" class="triangle-float2"></path><path d="M431.041,919.507C472.926,922.566,522.312,925.459,544.83,890.009C568.238,853.157,551.088,805.278,526.524,769.186C505.187,737.836,468.91,724.816,431.041,722.82C388.239,720.565,337.851,721.018,316.379,758.113C294.886,795.244,317.959,840.28,342.807,875.255C363.231,904.003,395.87,916.938,431.041,919.507" fill="rgba(39, 38, 38, 0.4)" class="triangle-float1"></path><path d="M0.899,936.961C12.334,936.724,23.392,931.618,29.017,921.66C34.559,911.849,32.252,900.302,27.333,890.164C21.5,878.143,14.236,864.52,0.899,863.711C-13.314,862.849,-25.264,873.902,-31.74,886.583C-37.65,898.154,-36.38,911.965,-29.315,922.87C-22.839,932.866,-11.008,937.208,0.899,936.961" fill="rgba(39, 38, 38, 0.4)" class="triangle-float3"></path><path d="M236.201,631.587C257.764,631.111,276.314,616.922,286.199,597.753C295.302,580.102,291.685,559.776,282.244,542.304C272.204,523.723,257.314,504.693,236.201,505.226C215.609,505.746,204.208,526.631,194.018,544.533C183.988,562.154,173.388,581.8,182.23,600.047C191.969,620.145,213.873,632.08,236.201,631.587" fill="rgba(39, 38, 38, 0.4)" class="triangle-float2"></path><path d="M403.124,1279.905C423.298,1279.739,445.593,1275.865,455.234,1258.142C464.613,1240.901,454.123,1221.275,444.242,1204.317C434.459,1187.526,422.524,1169.834,403.124,1168.709C382.178,1167.494,363.533,1180.973,352.821,1199.014C341.861,1217.473,338.17,1240.782,349.507,1259.013C360.364,1276.472,382.566,1280.074,403.124,1279.905" fill="rgba(39, 38, 38, 0.4)" class="triangle-float3"></path><path d="M123.71,423.392C151.2,425.594,181.574,416.838,194.421,392.435C206.739,369.036,192.696,342.247,178.002,320.263C165.324,301.295,146.525,286.719,123.71,286.644C100.773,286.569,79.97,299.874,68.794,319.904C57.897,339.433,59.748,362.73,70.231,382.485C81.506,403.734,99.732,421.471,123.71,423.392" fill="rgba(39, 38, 38, 0.4)" class="triangle-float3"></path><path d="M230.821,153.225C261.215,154.362,292.826,144.514,308.536,118.47C324.685,91.699,321.247,57.464,304.519,31.051C288.899,6.388,260.002,-3.403,230.821,-4.241C199.732,-5.133,165.059,-0.28,149.411,26.599C133.701,53.586,145.677,86.742,162.564,113.009C177.871,136.817,202.537,152.167,230.821,153.225" fill="rgba(39, 38, 38, 0.4)" class="triangle-float2"></path><path d="M411.214,695.478C451.748,694.586,485.801,666.834,504.507,630.863C521.787,597.636,518.996,557.997,499.265,526.164C480.583,496.023,446.674,480.594,411.214,480.35C375.274,480.102,340.634,494.808,321.036,524.935C299.471,558.086,292.038,600.172,310.525,635.133C330.129,672.207,369.286,696.401,411.214,695.478" fill="rgba(39, 38, 38, 0.4)" class="triangle-float3"></path><path d="M366.531,1353.084C399.349,1352.93,429.273,1334.221,445.083,1305.462C460.342,1277.706,456.167,1244.905,441.406,1216.881C425.373,1186.442,400.921,1155.386,366.531,1156.327C333.042,1157.243,314.182,1191.224,298.431,1220.793C283.95,1247.978,272.598,1278.818,286.695,1306.204C301.834,1335.613,333.454,1353.239,366.531,1353.084" fill="rgba(39, 38, 38, 0.4)" class="triangle-float3"></path><path d="M293.597,758.084C335.634,755.778,368.335,724.607,387.784,687.269C405.646,652.977,404.381,613.513,386.855,579.048C367.271,540.536,336.782,500.715,293.597,502.053C251.62,503.353,230.896,548.196,209.837,584.531C188.681,621.032,161.293,660.695,179.63,698.69C199.587,740.04,247.752,760.599,293.597,758.084" fill="rgba(39, 38, 38, 0.4)" class="triangle-float3"></path><path d="M184.296,660.993C229.028,663.809,273.458,639.924,293.963,600.068C313.139,562.797,296.47,520.385,275.226,484.253C254.369,448.778,225.448,413.517,184.296,413.544C143.175,413.571,112.138,447.681,93.568,484.37C76.905,517.292,79.33,554.797,96.19,587.619C114.907,624.056,143.414,658.42,184.296,660.993" fill="rgba(39, 38, 38, 0.4)" class="triangle-float2"></path><path d="M295.694,239.012C340.635,239.25,387.223,227.752,411.525,189.947C437.668,149.278,441.552,94.518,414.205,54.649C389.313,18.359,339.588,17.932,295.694,21.076C258.493,23.741,224.282,38.889,203.345,69.754C179.101,105.495,161.281,150.82,181.966,188.732C203.244,227.73,251.27,238.777,295.694,239.012" fill="rgba(39, 38, 38, 0.4)" class="triangle-float2"></path><path d="M233.386,602.781C264.367,604.016,293.671,587.339,309.167,560.483C324.657,533.638,324.989,499.562,307.843,473.743C292.164,450.133,261.656,444.35,233.386,446.369C208.88,448.119,188.089,462.218,175.319,483.206C161.936,505.201,156.143,531.673,167.39,554.833C180.121,581.049,204.265,601.621,233.386,602.781" fill="rgba(39, 38, 38, 0.4)" class="triangle-float1"></path></g><defs><mask id="SvgjsMask1020"><rect width="460" height="1440" fill="#ffffff"></rect></mask><style>
                @keyframes float1 {
                    0%{transform: translate(0, 0)}
                    50%{transform: translate(-10px, 0)}
                    100%{transform: translate(0, 0)}
                }

                .triangle-float1 {
                    animation: float1 5s infinite;
                }

                @keyframes float2 {
                    0%{transform: translate(0, 0)}
                    50%{transform: translate(-5px, -5px)}
                    100%{transform: translate(0, 0)}
                }

                .triangle-float2 {
                    animation: float2 4s infinite;
                }

                @keyframes float3 {
                    0%{transform: translate(0, 0)}
                    50%{transform: translate(0, -10px)}
                    100%{transform: translate(0, 0)}
                }

                .triangle-float3 {
                    animation: float3 6s infinite;
                }
            </style></defs></svg>