<svg xmlns="http://www.w3.org/2000/svg" version="1.1" xmlns:xlink="http://www.w3.org/1999/xlink" xmlns:svgjs="http://svgjs.dev/svgjs" width="1440" height="760" preserveAspectRatio="none" viewBox="0 0 1440 760"><g mask="url(&quot;#SvgjsMask1054&quot;)" fill="none"><rect width="1440" height="760" x="0" y="0" fill="rgba(107, 107, 107, 1)"></rect><path d="M1078.454,330.932C1135.52,333.769,1190.522,302.544,1217.71,252.291C1243.771,204.121,1231.85,146.558,1203.587,99.646C1176.353,54.441,1131.202,19.469,1078.454,21.143C1027.997,22.745,990.23,62.692,966.363,107.176C943.989,148.878,940.08,197.231,961.277,239.544C985.056,287.011,1025.429,328.296,1078.454,330.932" fill="rgba(39, 38, 38, 0.4)" class="triangle-float2"></path><path d="M739.639,373.746C769.141,373.703,802.551,372.472,817.848,347.245C833.504,321.425,822.056,289.369,806.492,263.493C791.519,238.6,768.656,218.576,739.639,217.215C708.231,215.742,677.211,229.748,660.966,256.669C644.205,284.445,642.941,320.547,661.035,347.473C677.55,372.05,710.029,373.789,739.639,373.746" fill="rgba(39, 38, 38, 0.4)" class="triangle-float1"></path><path d="M527.184,1015.642C596.373,1018.688,664.162,980.43,694.846,918.342C722.938,861.5,692.139,799.508,661.405,744.05C629.256,686.039,593.419,619.236,527.184,615.8C457.097,612.164,397.761,665.934,366.463,728.75C338.314,785.247,352.427,849.559,383.277,904.627C415.013,961.277,462.313,1012.786,527.184,1015.642" fill="rgba(39, 38, 38, 0.4)" class="triangle-float1"></path><path d="M450.165,691.738C490.816,692.855,522.007,659.319,541.276,623.508C559.408,589.811,564.606,548.999,544.487,516.449C525.217,485.273,486.806,476.943,450.165,476.101C411.502,475.212,367.444,478.491,348.022,511.933C328.55,545.462,348.181,585.016,367.333,618.729C386.818,653.029,410.732,690.655,450.165,691.738" fill="rgba(39, 38, 38, 0.4)" class="triangle-float2"></path><path d="M440.72,315.332C467.841,313.396,486.204,290.396,499.026,266.419C510.948,244.125,515.87,218.506,504.601,195.874C492.014,170.593,468.961,149.15,440.72,149.317C412.692,149.483,392.389,172.49,378.137,196.624C363.563,221.304,352.59,250.566,365.957,275.92C380.038,302.63,410.603,317.482,440.72,315.332" fill="rgba(39, 38, 38, 0.4)" class="triangle-float2"></path><path d="M938.996,137.905C981.717,139.959,1030.803,140.102,1053.827,104.058C1077.97,66.262,1063.182,17.846,1040.337,-20.749C1018.006,-58.474,982.812,-91.366,938.996,-89.938C896.922,-88.567,868.161,-51.71,848.486,-14.495C830.358,19.794,822.017,60.516,841.822,93.864C861.285,126.636,900.924,136.074,938.996,137.905" fill="rgba(39, 38, 38, 0.4)" class="triangle-float2"></path><path d="M448.514,480.541C503.53,482.337,552.749,449.431,581.276,402.355C610.973,353.349,621.061,292.249,592.833,242.382C564.244,191.878,506.547,167.57,448.514,167.826C390.964,168.08,333.092,192.668,306.388,243.648C281.134,291.859,301.963,347.48,329.963,394.15C356.925,439.089,396.135,478.831,448.514,480.541" fill="rgba(39, 38, 38, 0.4)" class="triangle-float1"></path><path d="M849.561,1108.764C934.281,1109.768,1012.296,1062.176,1053.869,988.351C1094.689,915.863,1088.917,828.251,1048.46,755.56C1006.763,680.64,935.302,620.774,849.561,621.257C764.502,621.736,694.989,682.97,654.505,757.778C616.105,828.736,614.277,913.084,653.47,983.607C693.842,1056.253,766.457,1107.779,849.561,1108.764" fill="rgba(39, 38, 38, 0.4)" class="triangle-float3"></path><path d="M999.123,721.018C1025.632,719.641,1042.941,696.59,1056.435,673.731C1070.251,650.327,1084.17,622.915,1071.1,599.086C1057.712,574.678,1026.881,567.132,999.123,569.242C974.932,571.081,956.651,588.119,943.893,608.755C930.221,630.868,918.999,656.947,930.476,680.275C943.066,705.866,970.641,722.498,999.123,721.018" fill="rgba(39, 38, 38, 0.4)" class="triangle-float1"></path><path d="M571.42,868.537C641.47,867.396,721.293,863.015,755.927,802.116C790.337,741.611,755.133,669.828,717.858,611.045C683.942,557.56,634.752,511.084,571.42,511.147C508.178,511.21,460.209,558.479,425.485,611.335C385.657,671.961,340.406,745.209,376.203,808.299C412.223,871.781,498.441,869.725,571.42,868.537" fill="rgba(39, 38, 38, 0.4)" class="triangle-float3"></path><path d="M204.304,1043.801C270.829,1040.695,320.135,989.751,353.584,932.163C387.227,874.242,407.876,805.701,377.182,746.165C344.191,682.173,276.3,642.87,204.304,642.612C131.871,642.352,65.422,682.154,29.265,744.917C-6.833,807.577,-7.784,884.927,28.76,947.327C64.925,1009.079,132.819,1047.138,204.304,1043.801" fill="rgba(39, 38, 38, 0.4)" class="triangle-float3"></path><path d="M1180.547,299.495C1216.723,300.643,1255.382,287.759,1271.805,255.505C1287.271,225.131,1268.053,191.64,1250.271,162.561C1233.569,135.248,1212.507,108.138,1180.547,106.269C1145.73,104.232,1112.344,123.168,1095.102,153.485C1078.04,183.486,1081.362,220.229,1098.794,250.016C1116.037,279.481,1146.424,298.413,1180.547,299.495" fill="rgba(39, 38, 38, 0.4)" class="triangle-float2"></path><path d="M1554.335,420.335C1633.307,416.992,1690.088,349.281,1723.365,277.584C1751.388,217.207,1738.093,150.722,1706.72,92.016C1672.912,28.755,1625.832,-32.95,1554.335,-38.702C1473.798,-45.182,1393.67,-6.057,1352.604,63.526C1310.916,134.163,1318.187,221.629,1358.555,293.029C1399.617,365.658,1470.977,423.864,1554.335,420.335" fill="rgba(39, 38, 38, 0.4)" class="triangle-float1"></path><path d="M1042.417,324.427C1072.316,324.227,1105.797,319.788,1120.221,293.597C1134.343,267.953,1120.128,237.513,1103.581,213.363C1089.516,192.835,1067.3,180.201,1042.417,180.04C1017.231,179.877,994.236,191.877,979.865,212.562C962.773,237.162,948.169,268.504,962.789,294.649C977.612,321.158,1012.046,324.63,1042.417,324.427" fill="rgba(39, 38, 38, 0.4)" class="triangle-float3"></path></g><defs><mask id="SvgjsMask1054"><rect width="1440" height="760" fill="#ffffff"></rect></mask><style>
                @keyframes float1 {
                    0%{transform: translate(0, 0)}
                    50%{transform: translate(-10px, 0)}
                    100%{transform: translate(0, 0)}
                }

                .triangle-float1 {
                    animation: float1 5s infinite;
                }

                @keyframes float2 {
                    0%{transform: translate(0, 0)}
                    50%{transform: translate(-5px, -5px)}
                    100%{transform: translate(0, 0)}
                }

                .triangle-float2 {
                    animation: float2 4s infinite;
                }

                @keyframes float3 {
                    0%{transform: translate(0, 0)}
                    50%{transform: translate(0, -10px)}
                    100%{transform: translate(0, 0)}
                }

                .triangle-float3 {
                    animation: float3 6s infinite;
                }
            </style></defs></svg>