<svg id="visual" viewBox="0 0 540 896" width="540" height="896" xmlns="http://www.w3.org/2000/svg" xmlns:xlink="http://www.w3.org/1999/xlink" version="1.1"><rect x="0" y="0" width="540" height="896" fill="#001220"></rect><defs><linearGradient id="grad1_0" x1="0%" y1="100%" x2="100%" y2="0%"><stop offset="30%" stop-color="#006eff" stop-opacity="1"></stop><stop offset="70%" stop-color="#006eff" stop-opacity="1"></stop></linearGradient></defs><defs><linearGradient id="grad1_1" x1="0%" y1="100%" x2="100%" y2="0%"><stop offset="30%" stop-color="#006eff" stop-opacity="1"></stop><stop offset="70%" stop-color="#00438a" stop-opacity="1"></stop></linearGradient></defs><defs><linearGradient id="grad1_2" x1="0%" y1="100%" x2="100%" y2="0%"><stop offset="30%" stop-color="#001220" stop-opacity="1"></stop><stop offset="70%" stop-color="#00438a" stop-opacity="1"></stop></linearGradient></defs><defs><linearGradient id="grad2_0" x1="0%" y1="100%" x2="100%" y2="0%"><stop offset="30%" stop-color="#006eff" stop-opacity="1"></stop><stop offset="70%" stop-color="#006eff" stop-opacity="1"></stop></linearGradient></defs><defs><linearGradient id="grad2_1" x1="0%" y1="100%" x2="100%" y2="0%"><stop offset="30%" stop-color="#00438a" stop-opacity="1"></stop><stop offset="70%" stop-color="#006eff" stop-opacity="1"></stop></linearGradient></defs><defs><linearGradient id="grad2_2" x1="0%" y1="100%" x2="100%" y2="0%"><stop offset="30%" stop-color="#00438a" stop-opacity="1"></stop><stop offset="70%" stop-color="#001220" stop-opacity="1"></stop></linearGradient></defs><g transform="translate(540, 896)"><path d="M-392.3 0C-336.2 -20.1 -280 -40.2 -279.2 -74.8C-278.3 -109.4 -332.7 -158.6 -339.7 -196.2C-346.8 -233.7 -306.4 -259.7 -264.5 -264.5C-222.5 -269.2 -179.1 -252.7 -151.5 -262.4C-123.9 -272.2 -112.2 -308.2 -89.6 -334.2C-66.9 -360.2 -33.5 -376.3 0 -392.3L0 0Z" fill="#002b52"></path><path d="M-261.5 0C-224.1 -13.4 -186.7 -26.8 -186.1 -49.9C-185.5 -72.9 -221.8 -105.7 -226.5 -130.8C-231.2 -155.8 -204.3 -173.2 -176.3 -176.3C-148.4 -179.5 -119.4 -168.4 -101 -174.9C-82.6 -181.4 -74.8 -205.5 -59.7 -222.8C-44.6 -240.2 -22.3 -250.8 0 -261.5L0 0Z" fill="#005ac5"></path><path d="M-130.8 0C-112.1 -6.7 -93.3 -13.4 -93.1 -24.9C-92.8 -36.5 -110.9 -52.9 -113.2 -65.4C-115.6 -77.9 -102.1 -86.6 -88.2 -88.2C-74.2 -89.7 -59.7 -84.2 -50.5 -87.5C-41.3 -90.7 -37.4 -102.7 -29.9 -111.4C-22.3 -120.1 -11.2 -125.4 0 -130.8L0 0Z" fill="#006eff"></path></g><g transform="translate(0, 0)"><path d="M392.3 0C374.9 32.3 357.5 64.6 342.9 91.9C328.4 119.1 316.7 141.4 312.6 180.5C308.6 219.6 312.1 275.7 277.4 277.4C242.7 279.1 169.6 226.6 137 237.3C104.4 248 112.1 322 96 358.4C79.9 394.7 40 393.5 0 392.3L0 0Z" fill="#002b52"></path><path d="M261.5 0C249.9 21.5 238.3 43.1 228.6 61.3C218.9 79.4 211.1 94.2 208.4 120.3C205.7 146.4 208.1 183.8 184.9 184.9C161.8 186.1 113.1 151.1 91.3 158.2C69.6 165.3 74.7 214.7 64 238.9C53.3 263.2 26.6 262.3 0 261.5L0 0Z" fill="#005ac5"></path><path d="M130.8 0C125 10.8 119.2 21.5 114.3 30.6C109.5 39.7 105.6 47.1 104.2 60.2C102.9 73.2 104 91.9 92.5 92.5C80.9 93 56.5 75.5 45.7 79.1C34.8 82.7 37.4 107.3 32 119.5C26.6 131.6 13.3 131.2 0 130.8L0 0Z" fill="#006eff"></path></g></svg>