<svg id="visual" viewBox="0 0 540 960" width="540" height="960" xmlns="http://www.w3.org/2000/svg" xmlns:xlink="http://www.w3.org/1999/xlink" version="1.1"><rect x="0" y="0" width="540" height="960" fill="#001220"></rect><defs><linearGradient id="grad1_0" x1="0%" y1="100%" x2="100%" y2="0%"><stop offset="30%" stop-color="#006eff" stop-opacity="1"></stop><stop offset="70%" stop-color="#006eff" stop-opacity="1"></stop></linearGradient></defs><defs><linearGradient id="grad1_1" x1="0%" y1="100%" x2="100%" y2="0%"><stop offset="30%" stop-color="#006eff" stop-opacity="1"></stop><stop offset="70%" stop-color="#00438a" stop-opacity="1"></stop></linearGradient></defs><defs><linearGradient id="grad1_2" x1="0%" y1="100%" x2="100%" y2="0%"><stop offset="30%" stop-color="#001220" stop-opacity="1"></stop><stop offset="70%" stop-color="#00438a" stop-opacity="1"></stop></linearGradient></defs><defs><linearGradient id="grad2_0" x1="0%" y1="100%" x2="100%" y2="0%"><stop offset="30%" stop-color="#006eff" stop-opacity="1"></stop><stop offset="70%" stop-color="#006eff" stop-opacity="1"></stop></linearGradient></defs><defs><linearGradient id="grad2_1" x1="0%" y1="100%" x2="100%" y2="0%"><stop offset="30%" stop-color="#00438a" stop-opacity="1"></stop><stop offset="70%" stop-color="#006eff" stop-opacity="1"></stop></linearGradient></defs><defs><linearGradient id="grad2_2" x1="0%" y1="100%" x2="100%" y2="0%"><stop offset="30%" stop-color="#00438a" stop-opacity="1"></stop><stop offset="70%" stop-color="#001220" stop-opacity="1"></stop></linearGradient></defs><g transform="translate(540, 960)"><path d="M-405 0C-415.5 -42.7 -426 -85.3 -391.2 -104.8C-356.4 -124.3 -276.4 -120.7 -250.3 -144.5C-224.2 -168.3 -251.9 -219.4 -244 -244C-236 -268.5 -192.2 -266.3 -163.5 -283.2C-134.8 -300 -121 -335.9 -96.3 -359.3C-71.5 -382.8 -35.8 -393.9 0 -405L0 0Z" fill="#002b52"></path><path d="M-270 0C-277 -28.4 -284 -56.9 -260.8 -69.9C-237.6 -82.9 -184.3 -80.5 -166.9 -96.3C-149.4 -112.2 -168 -146.3 -162.6 -162.6C-157.3 -179 -128.2 -177.6 -109 -188.8C-89.8 -200 -80.7 -223.9 -64.2 -239.5C-47.7 -255.2 -23.8 -262.6 0 -270L0 0Z" fill="#005ac5"></path><path d="M-135 0C-138.5 -14.2 -142 -28.4 -130.4 -34.9C-118.8 -41.4 -92.1 -40.2 -83.4 -48.2C-74.7 -56.1 -84 -73.1 -81.3 -81.3C-78.7 -89.5 -64.1 -88.8 -54.5 -94.4C-44.9 -100 -40.3 -112 -32.1 -119.8C-23.8 -127.6 -11.9 -131.3 0 -135L0 0Z" fill="#006eff"></path></g><g transform="translate(0, 0)"><path d="M405 0C369.4 27.3 333.8 54.5 325.5 87.2C317.3 119.9 336.4 158.1 336 194C335.7 229.9 315.9 263.6 286.4 286.4C256.9 309.2 217.8 321.1 180 311.8C142.2 302.5 105.9 272 76.1 284C46.3 296 23.2 350.5 0 405L0 0Z" fill="#002b52"></path><path d="M270 0C246.3 18.2 222.5 36.3 217 58.1C211.5 80 224.2 105.4 224 129.3C223.8 153.3 210.6 175.7 190.9 190.9C171.3 206.1 145.2 214 120 207.8C94.8 201.6 70.6 181.3 50.7 189.3C30.9 197.3 15.4 233.7 0 270L0 0Z" fill="#005ac5"></path><path d="M135 0C123.1 9.1 111.3 18.2 108.5 29.1C105.8 40 112.1 52.7 112 64.7C111.9 76.6 105.3 87.9 95.5 95.5C85.6 103.1 72.6 107 60 103.9C47.4 100.8 35.3 90.7 25.4 94.7C15.4 98.7 7.7 116.8 0 135L0 0Z" fill="#006eff"></path></g></svg>