<svg id="visual" viewBox="0 0 960 540" width="960" height="540" xmlns="http://www.w3.org/2000/svg" xmlns:xlink="http://www.w3.org/1999/xlink" version="1.1"><rect x="0" y="0" width="960" height="540" fill="#00122b"></rect><defs><linearGradient id="grad1_0" x1="43.8%" y1="0%" x2="100%" y2="100%"><stop offset="14.444444444444446%" stop-color="#006eff" stop-opacity="1"></stop><stop offset="85.55555555555554%" stop-color="#006eff" stop-opacity="1"></stop></linearGradient></defs><defs><linearGradient id="grad1_1" x1="43.8%" y1="0%" x2="100%" y2="100%"><stop offset="14.444444444444446%" stop-color="#006eff" stop-opacity="1"></stop><stop offset="85.55555555555554%" stop-color="#00408f" stop-opacity="1"></stop></linearGradient></defs><defs><linearGradient id="grad1_2" x1="43.8%" y1="0%" x2="100%" y2="100%"><stop offset="14.444444444444446%" stop-color="#00122b" stop-opacity="1"></stop><stop offset="85.55555555555554%" stop-color="#00408f" stop-opacity="1"></stop></linearGradient></defs><defs><linearGradient id="grad2_0" x1="0%" y1="0%" x2="56.3%" y2="100%"><stop offset="14.444444444444446%" stop-color="#006eff" stop-opacity="1"></stop><stop offset="85.55555555555554%" stop-color="#006eff" stop-opacity="1"></stop></linearGradient></defs><defs><linearGradient id="grad2_1" x1="0%" y1="0%" x2="56.3%" y2="100%"><stop offset="14.444444444444446%" stop-color="#00408f" stop-opacity="1"></stop><stop offset="85.55555555555554%" stop-color="#006eff" stop-opacity="1"></stop></linearGradient></defs><defs><linearGradient id="grad2_2" x1="0%" y1="0%" x2="56.3%" y2="100%"><stop offset="14.444444444444446%" stop-color="#00408f" stop-opacity="1"></stop><stop offset="85.55555555555554%" stop-color="#00122b" stop-opacity="1"></stop></linearGradient></defs><g transform="translate(960, 0)"><path d="M0 405C-39.9 388 -79.9 371 -113.4 349C-146.9 327.1 -174.1 300.2 -201 276.7C-228 253.2 -254.7 233 -288.8 209.8C-323 186.7 -364.6 160.6 -385.2 125.2C-405.8 89.7 -405.4 44.8 -405 0L0 0Z" fill="#00295b"></path><path d="M0 270C-26.6 258.7 -53.2 247.3 -75.6 232.7C-98 218.1 -116.1 200.1 -134 184.5C-152 168.8 -169.8 155.3 -192.5 139.9C-215.3 124.5 -243 107.1 -256.8 83.4C-270.5 59.8 -270.3 29.9 -270 0L0 0Z" fill="#0057c6"></path><path d="M0 135C-13.3 129.3 -26.6 123.7 -37.8 116.3C-49 109 -58 100.1 -67 92.2C-76 84.4 -84.9 77.7 -96.3 69.9C-107.7 62.2 -121.5 53.5 -128.4 41.7C-135.3 29.9 -135.1 14.9 -135 0L0 0Z" fill="#006eff"></path></g><g transform="translate(0, 540)"><path d="M0 -405C32.2 -365.5 64.4 -326 102 -313.8C139.5 -301.7 182.3 -317 225.7 -310.7C269.1 -304.4 313 -276.5 327.7 -238.1C342.3 -199.6 327.7 -150.5 335.7 -109.1C343.7 -67.6 374.4 -33.8 405 0L0 0Z" fill="#00295b"></path><path d="M0 -270C21.5 -243.7 43 -217.3 68 -209.2C93 -201.1 121.6 -211.3 150.5 -207.1C179.4 -202.9 208.7 -184.3 218.4 -158.7C228.2 -133.1 218.5 -100.4 223.8 -72.7C229.2 -45.1 249.6 -22.5 270 0L0 0Z" fill="#0057c6"></path><path d="M0 -135C10.7 -121.8 21.5 -108.7 34 -104.6C46.5 -100.6 60.8 -105.7 75.2 -103.6C89.7 -101.5 104.3 -92.2 109.2 -79.4C114.1 -66.5 109.2 -50.2 111.9 -36.4C114.6 -22.5 124.8 -11.3 135 0L0 0Z" fill="#006eff"></path></g></svg>