<svg id="visual" viewBox="0 0 960 540" width="960" height="540" xmlns="http://www.w3.org/2000/svg" xmlns:xlink="http://www.w3.org/1999/xlink" version="1.1"><rect x="0" y="0" width="960" height="540" fill="#001220"></rect><defs><linearGradient id="grad1_0" x1="43.8%" y1="100%" x2="100%" y2="0%"><stop offset="14.444444444444446%" stop-color="#006eff" stop-opacity="1"></stop><stop offset="85.55555555555554%" stop-color="#006eff" stop-opacity="1"></stop></linearGradient></defs><defs><linearGradient id="grad1_1" x1="43.8%" y1="100%" x2="100%" y2="0%"><stop offset="14.444444444444446%" stop-color="#006eff" stop-opacity="1"></stop><stop offset="85.55555555555554%" stop-color="#00438a" stop-opacity="1"></stop></linearGradient></defs><defs><linearGradient id="grad1_2" x1="43.8%" y1="100%" x2="100%" y2="0%"><stop offset="14.444444444444446%" stop-color="#001220" stop-opacity="1"></stop><stop offset="85.55555555555554%" stop-color="#00438a" stop-opacity="1"></stop></linearGradient></defs><defs><linearGradient id="grad2_0" x1="0%" y1="100%" x2="56.3%" y2="0%"><stop offset="14.444444444444446%" stop-color="#006eff" stop-opacity="1"></stop><stop offset="85.55555555555554%" stop-color="#006eff" stop-opacity="1"></stop></linearGradient></defs><defs><linearGradient id="grad2_1" x1="0%" y1="100%" x2="56.3%" y2="0%"><stop offset="14.444444444444446%" stop-color="#00438a" stop-opacity="1"></stop><stop offset="85.55555555555554%" stop-color="#006eff" stop-opacity="1"></stop></linearGradient></defs><defs><linearGradient id="grad2_2" x1="0%" y1="100%" x2="56.3%" y2="0%"><stop offset="14.444444444444446%" stop-color="#00438a" stop-opacity="1"></stop><stop offset="85.55555555555554%" stop-color="#001220" stop-opacity="1"></stop></linearGradient></defs><g transform="translate(960, 540)"><path d="M-405 0C-364.8 -27.7 -324.6 -55.5 -306.2 -82C-287.8 -108.6 -291.3 -134 -295.3 -170.5C-299.3 -207 -303.9 -254.4 -286.4 -286.4C-268.8 -318.3 -229.2 -334.7 -190.5 -330C-151.8 -325.2 -114.1 -299.2 -82.6 -308.1C-51 -317.1 -25.5 -361.1 0 -405L0 0Z" fill="#002b52"></path><path d="M-270 0C-243.2 -18.5 -216.4 -37 -204.1 -54.7C-191.9 -72.4 -194.2 -89.4 -196.9 -113.7C-199.6 -138 -202.6 -169.6 -190.9 -190.9C-179.2 -212.2 -152.8 -223.2 -127 -220C-101.2 -216.8 -76.1 -199.4 -55 -205.4C-34 -211.4 -17 -240.7 0 -270L0 0Z" fill="#005ac5"></path><path d="M-135 0C-121.6 -9.2 -108.2 -18.5 -102.1 -27.3C-95.9 -36.2 -97.1 -44.7 -98.4 -56.8C-99.8 -69 -101.3 -84.8 -95.5 -95.5C-89.6 -106.1 -76.4 -111.6 -63.5 -110C-50.6 -108.4 -38 -99.7 -27.5 -102.7C-17 -105.7 -8.5 -120.4 0 -135L0 0Z" fill="#006eff"></path></g><g transform="translate(0, 0)"><path d="M405 0C401.1 33.6 397.1 67.1 391.2 104.8C385.3 142.5 377.3 184.4 340.3 196.5C303.4 208.6 237.5 191 206.5 206.5C175.5 221.9 179.4 270.5 161.5 279.7C143.6 289 103.8 259 73.2 273.4C42.7 287.7 21.3 346.3 0 405L0 0Z" fill="#002b52"></path><path d="M270 0C267.4 22.4 264.8 44.7 260.8 69.9C256.8 95 251.5 122.9 226.9 131C202.3 139.1 158.3 127.3 137.7 137.7C117 148 119.6 180.3 107.7 186.5C95.7 192.7 69.2 172.7 48.8 182.2C28.5 191.8 14.2 230.9 0 270L0 0Z" fill="#005ac5"></path><path d="M135 0C133.7 11.2 132.4 22.4 130.4 34.9C128.4 47.5 125.8 61.5 113.4 65.5C101.1 69.5 79.2 63.7 68.8 68.8C58.5 74 59.8 90.2 53.8 93.2C47.9 96.3 34.6 86.3 24.4 91.1C14.2 95.9 7.1 115.4 0 135L0 0Z" fill="#006eff"></path></g></svg>