<svg id="visual" viewBox="0 0 960 540" width="960" height="540" xmlns="http://www.w3.org/2000/svg" xmlns:xlink="http://www.w3.org/1999/xlink" version="1.1"><rect x="0" y="0" width="960" height="540" fill="#002233"></rect><path d="M0 92L22.8 107.5C45.7 123 91.3 154 137 156.2C182.7 158.3 228.3 131.7 274 109.5C319.7 87.3 365.3 69.7 411.2 88.2C457 106.7 503 161.3 548.8 161.8C594.7 162.3 640.3 108.7 686 86.3C731.7 64 777.3 73 823 78.2C868.7 83.3 914.3 84.7 937.2 85.3L960 86L960 0L937.2 0C914.3 0 868.7 0 823 0C777.3 0 731.7 0 686 0C640.3 0 594.7 0 548.8 0C503 0 457 0 411.2 0C365.3 0 319.7 0 274 0C228.3 0 182.7 0 137 0C91.3 0 45.7 0 22.8 0L0 0Z" fill="#0066FF" stroke-linecap="round" stroke-linejoin="miter"></path></svg>