<svg id="visual" viewBox="0 0 960 540" width="960" height="540" xmlns="http://www.w3.org/2000/svg" xmlns:xlink="http://www.w3.org/1999/xlink" version="1.1"><rect x="0" y="0" width="960" height="540" fill="#002233"></rect><path d="M0 446L22.8 430.5C45.7 415 91.3 384 137 381.8C182.7 379.7 228.3 406.3 274 428.5C319.7 450.7 365.3 468.3 411.2 449.8C457 431.3 503 376.7 548.8 376.2C594.7 375.7 640.3 429.3 686 451.7C731.7 474 777.3 465 823 459.8C868.7 454.7 914.3 453.3 937.2 452.7L960 452L960 541L937.2 541C914.3 541 868.7 541 823 541C777.3 541 731.7 541 686 541C640.3 541 594.7 541 548.8 541C503 541 457 541 411.2 541C365.3 541 319.7 541 274 541C228.3 541 182.7 541 137 541C91.3 541 45.7 541 22.8 541L0 541Z" fill="#0066FF" stroke-linecap="round" stroke-linejoin="miter"></path></svg>